<?xml version="1.0" encoding="UTF-8"?>
<svg xmlns="http://www.w3.org/2000/svg" xmlns:xlink="http://www.w3.org/1999/xlink" width="90px" height="90px" viewBox="0 0 90 90" version="1.1">
<g id="surface1">
<path style=" stroke:none;fill-rule:nonzero;fill:rgb(34.509804%,20.784314%,16.078431%);fill-opacity:1;" d="M 12.152344 22.867188 C 14.503906 21.226562 18.046875 21.539062 20.15625 23.28125 L 17.734375 19.765625 C 15.789062 16.988281 16.484375 13.984375 19.265625 12.03125 C 22.046875 10.089844 29.921875 15.3125 29.921875 15.3125 C 27.957031 12.507812 28.324219 8.953125 31.128906 6.984375 C 33.933594 5.023438 37.804688 5.703125 39.769531 8.511719 L 65.820312 45.3125 L 62.5 77.5 L 34.792969 67.394531 L 10.625 31.5625 C 8.640625 28.738281 9.328125 24.847656 12.152344 22.867188 Z M 12.152344 22.867188 "/>
<path style=" stroke:none;fill-rule:nonzero;fill:rgb(48.627451%,32.54902%,24.313725%);fill-opacity:1;" d="M 6.738281 43.339844 C 6.738281 43.339844 3.90625 39.214844 8.035156 36.386719 C 12.15625 33.558594 14.984375 37.683594 14.984375 37.683594 L 28.113281 56.828125 C 28.566406 56.074219 29.058594 55.328125 29.613281 54.59375 L 11.390625 28.023438 C 11.390625 28.023438 8.566406 23.902344 12.691406 21.074219 C 16.8125 18.246094 19.640625 22.371094 19.640625 22.371094 L 36.777344 47.363281 C 37.414062 46.84375 38.066406 46.320312 38.738281 45.808594 L 18.871094 16.828125 C 18.871094 16.828125 16.046875 12.707031 20.171875 9.878906 C 24.292969 7.050781 27.121094 11.175781 27.121094 11.175781 L 46.988281 40.148438 C 47.71875 39.699219 48.441406 39.3125 49.164062 38.902344 L 30.59375 11.824219 C 30.59375 11.824219 27.765625 7.699219 31.890625 4.871094 C 36.011719 2.046875 38.839844 6.167969 38.839844 6.167969 L 58.476562 34.800781 L 61.460938 39.15625 C 49.089844 47.640625 47.914062 63.605469 54.980469 73.914062 C 56.390625 75.976562 58.453125 74.5625 58.453125 74.5625 C 49.972656 62.191406 52.5625 48.289062 64.933594 39.804688 L 61.289062 21.550781 C 61.289062 21.550781 59.925781 16.738281 64.734375 15.375 C 69.542969 14.011719 70.90625 18.824219 70.90625 18.824219 L 75.121094 31.332031 C 76.789062 36.292969 78.566406 41.234375 80.921875 45.910156 C 87.5625 59.109375 83.59375 75.515625 71.070312 84.109375 C 57.40625 93.476562 38.730469 89.992188 29.359375 76.332031 Z M 6.738281 43.339844 "/>
<path style=" stroke:none;fill-rule:nonzero;fill:rgb(36.470588%,67.843137%,92.54902%);fill-opacity:1;" d="M 30 80.105469 C 20 80.105469 9.894531 70 9.894531 60 C 9.894531 58.617188 8.882812 57.5 7.5 57.5 C 6.117188 57.5 4.894531 58.617188 4.894531 60 C 4.894531 75 15 85.105469 30 85.105469 C 31.382812 85.105469 32.5 83.882812 32.5 82.5 C 32.5 81.117188 31.382812 80.105469 30 80.105469 Z M 30 80.105469 "/>
<path style=" stroke:none;fill-rule:nonzero;fill:rgb(36.470588%,67.843137%,92.54902%);fill-opacity:1;" d="M 17.5 85 C 10 85 5 80 5 72.5 C 5 71.117188 3.882812 70 2.5 70 C 1.117188 70 0 71.117188 0 72.5 C 0 82.5 7.5 90 17.5 90 C 18.882812 90 20 88.882812 20 87.5 C 20 86.117188 18.882812 85 17.5 85 Z M 60 5 C 58.621094 5 57.5 6.121094 57.5 7.5 C 57.5 8.878906 58.621094 10 60 10 C 70 10 80 18.972656 80 30 C 80 31.378906 81.121094 32.5 82.5 32.5 C 83.878906 32.5 85 31.378906 85 30 C 85 16.214844 75 5 60 5 Z M 60 5 "/>
<path style=" stroke:none;fill-rule:nonzero;fill:rgb(36.470588%,67.843137%,92.54902%);fill-opacity:1;" d="M 72.5 0.105469 C 71.121094 0.105469 70 1.121094 70 2.5 C 70 3.878906 71.121094 5.105469 72.5 5.105469 C 80 5.105469 84.894531 10.667969 84.894531 17.5 C 84.894531 18.878906 86.117188 20 87.5 20 C 88.882812 20 89.894531 18.878906 89.894531 17.5 C 89.894531 7.90625 82.5 0.105469 72.5 0.105469 Z M 72.5 0.105469 "/>
</g>
</svg>
